<?xml version="1.0" standalone="no"?>
<!DOCTYPE svg PUBLIC "-//W3C//DTD SVG 20010904//EN"
 "http://www.w3.org/TR/2001/REC-SVG-20010904/DTD/svg10.dtd">
<svg version="1.0" xmlns="http://www.w3.org/2000/svg"
 width="194.000000pt" height="194.000000pt" viewBox="0 0 194.000000 194.000000"
 preserveAspectRatio="xMidYMid meet">
<metadata>
Created by potrace 1.14, written by Peter Selinger 2001-2017
</metadata>
<g transform="translate(0.000000,194.000000) scale(0.100000,-0.100000)"
fill="#000000" stroke="none">
<path d="M1119 1868 c-6 -13 -24 -36 -39 -53 -16 -16 -46 -58 -67 -91 -86
-140 -100 -159 -149 -213 -28 -31 -79 -108 -113 -171 -71 -133 -75 -140 -133
-238 -24 -40 -50 -87 -59 -103 -8 -17 -19 -34 -25 -37 -10 -8 -32 -46 -89
-157 -20 -38 -51 -97 -70 -130 -18 -33 -33 -67 -34 -76 -1 -9 -10 -24 -21 -34
-11 -10 -25 -37 -32 -59 -6 -23 -30 -81 -54 -131 -23 -49 -55 -128 -70 -174
-28 -82 -28 -84 -9 -98 11 -7 28 -12 39 -11 22 3 69 81 86 143 16 53 53 101
85 107 33 7 32 -4 -11 -91 -32 -65 -39 -92 -47 -170 -3 -37 23 -47 71 -26 39
17 46 26 81 105 22 47 38 69 65 91 24 19 30 20 58 8 30 -12 33 -11 62 22 l31
35 34 -23 c55 -37 83 -28 119 37 23 44 74 55 92 20 15 -28 69 -51 91 -40 9 5
37 52 62 104 25 52 51 97 57 101 6 4 19 0 29 -9 10 -9 31 -16 48 -16 32 0 52
18 71 63 16 37 35 43 66 20 18 -13 25 -28 26 -50 0 -51 59 -82 85 -46 11 15
14 15 40 -5 35 -28 46 -28 91 3 20 14 47 25 60 25 15 0 30 10 41 28 9 15 24
36 33 47 9 11 23 37 33 58 17 37 17 37 -7 37 -13 0 -40 -11 -60 -25 l-37 -25
-44 45 c-40 41 -44 49 -43 94 0 27 -5 58 -11 69 -6 11 -11 29 -11 40 0 34 -38
72 -73 72 -28 0 -34 6 -49 40 -11 28 -23 40 -36 40 -37 0 -50 11 -76 63 -37
78 -46 127 -30 173 18 49 11 77 -21 98 -14 9 -25 26 -25 37 0 27 -35 95 -58
111 -10 7 -21 21 -25 31 -11 30 -62 -4 -85 -57 -12 -25 -33 -51 -50 -62 -28
-16 -43 -39 -46 -70 -1 -7 -12 -20 -24 -30 -21 -18 -33 -35 -64 -93 -22 -42
-98 -109 -98 -86 0 2 9 19 20 37 11 18 20 39 20 47 0 8 6 22 13 30 8 9 20 32
27 51 7 19 25 51 39 70 14 19 35 53 46 75 20 41 35 63 92 138 18 23 33 48 33
54 0 7 15 30 34 50 42 47 96 135 96 156 0 17 -36 47 -57 47 -7 0 -17 -10 -24
-22z m-331 -765 c-2 -5 -14 -31 -27 -60 -14 -29 -30 -54 -38 -57 -17 -7 -17 4
1 40 8 16 19 41 25 57 6 15 18 27 27 27 8 0 14 -3 12 -7z m-88 -151 c0 -13
-12 -22 -22 -16 -10 6 -1 24 13 24 5 0 9 -4 9 -8z m-10 -42 c0 -5 -4 -10 -10
-10 -5 0 -10 5 -10 10 0 6 5 10 10 10 6 0 10 -4 10 -10z m-50 -86 c0 -3 -9
-17 -20 -31 -11 -14 -20 -31 -20 -37 0 -11 -39 -66 -40 -56 0 6 40 112 46 122
6 9 34 11 34 2z m-95 -176 c-9 -39 -37 -90 -53 -96 -19 -6 -14 20 14 76 29 59
49 69 39 20z"/>
</g>
</svg>
